HIERARCHY
ROOT SimulationBone
{
	OFFSET 0.000000 0.000000 0.000000
	CHANNELS 6 Xposition Yposition Zposition Zrotation Yrotation Xrotation 
	JOINT Hips
	{
		OFFSET 0.000000 0.000000 0.000000
		CHANNELS 6 Xposition Yposition Zposition Zrotation Yrotation Xrotation 
		JOINT RightUpLeg
		{
			OFFSET 0.103459 1.857842 10.548500
			CHANNELS 3 Zrotation Yrotation Xrotation
			JOINT RightLeg
			{
				OFFSET 43.500008 -0.000042 -0.000011
				CHANNELS 3 Zrotation Yrotation Xrotation
				JOINT RightFoot
				{
					OFFSET 42.372200 0.000000 0.000010
					CHANNELS 3 Zrotation Yrotation Xrotation
					JOINT RightToe
					{
						OFFSET 17.300018 0.000008 -0.000006
						CHANNELS 3 Zrotation Yrotation Xrotation
						End Site
						{
							OFFSET 0.000000 0.000000 0.000000
						}
					}
				}
			}
		}
		JOINT LeftUpLeg
		{
			OFFSET 0.103459 1.857820 -10.548510
			CHANNELS 3 Zrotation Yrotation Xrotation
			JOINT LeftLeg
			{
				OFFSET 43.500038 -0.000004 -0.000004
				CHANNELS 3 Zrotation Yrotation Xrotation
				JOINT LeftFoot
				{
					OFFSET 42.372261 -0.000019 0.000015
					CHANNELS 3 Zrotation Yrotation Xrotation
					JOINT LeftToe
					{
						OFFSET 17.300003 -0.000001 0.000006
						CHANNELS 3 Zrotation Yrotation Xrotation
						End Site
						{
							OFFSET 0.000000 0.000000 0.000000
						}
					}
				}
			}
		}
		JOINT Spine
		{
			OFFSET 6.901967 -2.603730 -0.000004
			CHANNELS 3 Zrotation Yrotation Xrotation
			JOINT Spine1
			{
				OFFSET 12.588097 -0.000009 0.000008
				CHANNELS 3 Zrotation Yrotation Xrotation
				JOINT Spine2
				{
					OFFSET 12.343205 0.000003 -0.000002
					CHANNELS 3 Zrotation Yrotation Xrotation
					JOINT Neck
					{
						OFFSET 25.832899 -0.000006 0.000003
						CHANNELS 3 Zrotation Yrotation Xrotation
						JOINT Head
						{
							OFFSET 11.766611 0.000013 0.000001
							CHANNELS 3 Zrotation Yrotation Xrotation
							End Site
							{
								OFFSET 0.000000 0.000000 0.000000
							}
						}
					}
					JOINT RightShoulder
					{
						OFFSET 19.745903 -1.480350 6.000102
						CHANNELS 3 Zrotation Yrotation Xrotation
						JOINT RightArm
						{
							OFFSET 11.284125 -0.000002 -0.000024
							CHANNELS 3 Zrotation Yrotation Xrotation
							JOINT RightForeArm
							{
								OFFSET 33.000050 0.000009 0.000033
								CHANNELS 3 Zrotation Yrotation Xrotation
								JOINT RightHand
								{
									OFFSET 25.200012 0.000010 -0.000003
									CHANNELS 3 Zrotation Yrotation Xrotation
									End Site
									{
										OFFSET 0.000000 0.000000 0.000000
									}
								}
							}
						}
					}
					JOINT LeftShoulder
					{
						OFFSET 19.746105 -1.480362 -6.000072
						CHANNELS 3 Zrotation Yrotation Xrotation
						JOINT LeftArm
						{
							OFFSET 11.284140 -0.000003 -0.000004
							CHANNELS 3 Zrotation Yrotation Xrotation
							JOINT LeftForeArm
							{
								OFFSET 33.000099 0.000013 0.000007
								CHANNELS 3 Zrotation Yrotation Xrotation
								JOINT LeftHand
								{
									OFFSET 25.199776 0.000126 0.000428
									CHANNELS 3 Zrotation Yrotation Xrotation
									End Site
									{
										OFFSET 0.000000 0.000000 0.000000
									}
								}
							}
						}
					}
				}
			}
		}
	}
}
MOTION
Frames: 5
Frame Time: 0.033333
252.945745 0.000000 -248.058675 0.000000 100.943910 0.000000 -2.667256 89.448036 0.365939 92.586146 1.015714 178.202199 -171.419225 -1.485397 174.171613 -17.458590 -6.488716 -0.817662 85.817755 1.658421 4.706136 21.454560 0.003118 0.000016 157.334733 2.535090 -172.087695 -12.614430 1.600926 3.705351 64.896223 -0.003827 7.302009 21.454550 -0.003075 0.000002 9.688405 0.334069 -0.718996 9.359692 0.725221 -1.408625 9.041673 0.716550 -1.412975 -11.684232 10.411424 11.130206 -9.181275 -16.831237 18.832963 -171.783711 -73.703779 -9.838915 -36.090901 45.925950 11.770485 -34.884064 -14.680643 1.338863 7.993197 -5.051024 0.064269 172.279173 76.917007 -6.365399 -16.190779 -55.538177 -12.090990 -29.704769 13.327133 -1.116473 17.109803 3.617067 7.959121 
253.267056 0.000000 -250.894750 0.000000 101.021874 0.000000 -1.736854 88.815666 0.188155 93.398327 0.624432 178.206370 -167.771562 -1.422100 174.117737 -16.554768 -6.466706 -0.702836 86.056531 1.488029 4.239831 21.454562 0.003110 0.000015 158.355149 2.237788 -171.791648 -10.175836 2.369957 2.735527 64.984018 0.547172 6.917528 21.454551 -0.003094 -0.000002 9.565005 0.264094 -0.550099 9.114589 0.570722 -1.077689 8.796538 0.564057 -1.081103 -11.709745 9.635725 11.189702 -8.064677 -17.473934 18.662379 -173.109123 -72.539286 -8.472150 -35.759052 45.956556 11.974656 -33.665070 -14.481053 1.298595 7.949285 -4.835473 -0.828116 171.513290 76.679706 -7.153382 -17.193920 -56.901650 -11.157654 -25.922960 12.766010 -1.013936 18.152269 5.719963 4.345757 
253.517420 0.000000 -253.764816 0.000000 101.034271 0.000000 -0.976316 88.459869 0.115759 94.514941 1.204319 177.923209 -163.998907 -2.238802 173.619502 -15.898601 -6.447058 -0.690826 85.772191 1.430405 3.895375 21.454555 0.003104 0.000018 159.715682 0.350804 -170.154929 -11.655228 1.480286 2.164596 64.294510 -0.963020 1.826215 21.454551 -0.003093 0.000001 9.496058 0.401046 -0.323695 8.977281 0.826021 -0.615309 8.659168 0.822155 -0.620297 -11.434730 7.919390 11.336933 -7.824370 -17.604997 18.315190 -172.348595 -71.790500 -9.249724 -35.626919 46.927214 11.657869 -32.459057 -14.268072 1.258815 7.840899 -4.154275 -0.131262 170.429107 76.640986 -8.260111 -17.990358 -58.702546 -9.962321 -24.151532 12.811421 -0.989368 18.479888 10.761534 0.224363 
253.700899 0.000000 -256.667426 0.000000 100.984306 0.000000 -0.183864 87.974831 0.098063 95.574833 1.648475 178.014325 -161.256682 -2.960402 172.558213 -17.195013 -5.797701 -0.064456 85.477359 0.813789 2.936404 21.454558 0.003108 0.000018 159.904455 -0.981296 -168.259320 -16.798664 -0.369248 1.410958 63.110046 -1.973723 -2.191564 21.454551 -0.003094 0.000000 9.350350 0.571712 -0.216781 8.686300 1.158101 -0.390047 8.368138 1.155599 -0.397056 -10.807017 5.962232 11.482807 -8.160831 -17.692888 17.993097 -170.615708 -71.384329 -11.031537 -34.700055 48.757947 11.532195 -31.956847 -14.373797 1.255089 8.132360 -2.953825 2.091840 170.509922 76.662139 -8.177108 -17.568394 -60.622437 -7.678456 -24.860710 12.973713 -1.010499 16.833435 16.527613 -2.799520 
253.821558 0.000000 -259.601134 0.000000 100.875087 0.000000 0.706357 87.512421 0.158971 96.921300 2.369549 178.255115 -158.932532 -3.961800 171.678280 -19.803080 -4.972874 0.438633 84.257432 0.352026 2.299842 21.454558 0.003111 0.000016 160.396583 -2.193993 -169.647009 -22.307676 -1.191512 2.720046 62.670770 -2.656100 -1.549477 21.454553 -0.003083 0.000002 9.304442 0.888403 -0.167524 8.594972 1.786812 -0.268661 8.276707 1.785022 -0.279458 -10.541182 3.884914 11.662889 -8.540157 -17.729202 17.693515 -168.986899 -70.663525 -12.708537 -32.569163 50.711334 11.385685 -32.474490 -14.360780 1.265106 8.081563 -1.919820 5.298123 173.304084 76.793026 -5.323901 -17.694375 -61.741946 -6.526306 -26.648002 13.625548 -1.081042 16.059909 19.813800 -1.254795 
